Coordinates
version=1
nRows=14
nColumns=24
inDegrees=yes

Units are S.I. units (second, meters, Newtons, ...)
Angles are in degrees.

endheader
time	pelvis_tilt	pelvis_list	pelvis_rotation	pelvis_tx	pelvis_ty	pelvis_tz	hip_flexion_r	hip_adduction_r	hip_rotation_r	knee_angle_r	ankle_angle_r	subtalar_angle_r	mtp_angle_r	hip_flexion_l	hip_adduction_l	hip_rotation_l	knee_angle_l	ankle_angle_l	subtalar_angle_l	mtp_angle_l	lumbar_extension	lumbar_bending	lumbar_rotation
      4.16500000	     14.27410749	     -6.40380542	      5.66150049	     -0.53348056	      0.92044946	     -0.24007751	    -29.89825159	      9.01179141	     -0.64266579	    -12.77885020	     23.72047660	      6.70461181	      0.00000000	      8.12332872	     -5.92864258	     11.32335431	     -3.53008302	     11.36485484	     -1.45666579	      0.00000000	    -32.48862301	      7.16462520	      2.72334500
      4.17000000	     14.16817200	     -6.01676275	      5.59303466	     -0.52672427	      0.92021585	     -0.24081770	    -29.86445788	      8.52952776	     -0.75656193	    -13.60148798	     23.50948391	      7.03744963	      0.00000000	      8.09551395	     -5.45958950	     11.21230488	     -3.89773117	     11.25100362	     -1.69893829	      0.00000000	    -32.32748074	      6.72657838	      2.56627951
      4.17500000	     14.09352387	     -5.57307917	      5.55689322	     -0.51992106	      0.92005627	     -0.24165123	    -29.85283146	      7.99851933	     -0.97719176	    -14.45350365	     23.26554439	      7.51931092	      0.00000000	      8.03082457	     -4.91918323	     11.09479415	     -4.33049420	     11.12974251	     -1.95358532	      0.00000000	    -32.19716003	      6.24968661	      2.38717990
      4.18000000	     14.10362169	     -5.08657205	      5.57050545	     -0.51310155	      0.92000902	     -0.24264119	    -29.92170206	      7.43633787	     -1.34644089	    -15.32678399	     22.95596172	      8.13328575	      0.00000000	      7.87735596	     -4.32330992	     11.02668208	     -4.82425580	     11.01346171	     -2.24545671	      0.00000000	    -32.15586250	      5.78072962	      2.14867090
      4.18500000	     14.05221454	     -4.57377086	      5.56068702	     -0.50624689	      0.91994736	     -0.24355182	    -29.89673201	      6.84936212	     -1.63873027	    -16.26462641	     22.61983063	      8.59239153	      0.00000000	      7.78464788	     -3.69904503	     10.90596191	     -5.37223405	     10.89132770	     -2.45747529	      0.00000000	    -32.04530937	      5.25136772	      1.90403528
      4.19000000	     13.96025057	     -4.04748818	      5.54242687	     -0.49939070	      0.91988831	     -0.24442377	    -29.79517876	      6.24991842	     -1.89045614	    -17.27101008	     22.25646007	      8.98757630	      0.00000000	      7.73594572	     -3.05911872	     10.76779872	     -5.96736211	     10.74764088	     -2.60480333	      0.00000000	    -31.89799788	      4.68800557	      1.67249325
      4.19500000	     13.93759866	     -3.49573880	      5.56879292	     -0.49250721	      0.91990283	     -0.24552960	    -29.75536352	      5.61329365	     -2.34771862	    -18.30454270	     21.84416805	      9.64475809	      0.00000000	      7.60783841	     -2.37426971	     10.68113586	     -6.59203871	     10.62438237	     -2.85686489	      0.00000000	    -31.81810248	      4.16414783	      1.40506677
      4.20000000	     13.82626454	     -2.94237056	      5.55316299	     -0.48557491	      0.91990904	     -0.24643450	    -29.58838038	      4.97983191	     -2.64548346	    -19.40031059	     21.34407034	     10.01792614	      0.00000000	      7.56038914	     -1.70299701	     10.51610552	     -7.22817514	     10.44463794	     -2.94695408	      0.00000000	    -31.63772165	      3.57433321	      1.16378094
      4.20500000	     13.77462585	     -2.37156561	      5.59569322	     -0.47868526	      0.91994797	     -0.24759873	    -29.45970194	      4.31901089	     -3.13634633	    -20.54583672	     20.84328413	     10.66870787	      0.00000000	      7.45354485	     -0.99067753	     10.44072127	     -7.89146121	     10.29166105	     -3.16147414	      0.00000000	    -31.53315421	      3.03581432	      0.89899859
      4.21000000	     13.66058716	     -1.80685338	      5.58656015	     -0.47171959	      0.91998769	     -0.24861359	    -29.23376396	      3.64994756	     -3.51580789	    -21.74680843	     20.25631038	     11.11957431	      0.00000000	      7.39162913	     -0.29962502	     10.27719475	     -8.54690330	     10.14370852	     -3.25824429	      0.00000000	    -31.34657205	      2.45330967	      0.65706354
      4.21500000	     13.53906695	     -1.24396980	      5.58694147	     -0.46476570	      0.92004661	     -0.24966392	    -28.96770138	      2.97650648	     -3.91054487	    -23.00001928	     19.61100432	     11.58678439	      0.00000000	      7.32786260	      0.39082602	     10.12655149	     -9.19296357	      9.97349355	     -3.34140323	      0.00000000	    -31.16031863	      1.87729915	      0.43615327
      4.22000000	     13.41314984	     -0.68718060	      5.58010052	     -0.45781172	      0.92013336	     -0.25073290	    -28.66482386	      2.29284917	     -4.31693384	    -24.29984691	     18.90632969	     12.03762672	      0.00000000	      7.25674380	      1.07292468	      9.98620354	     -9.82900186	      9.79542146	     -3.40618814	      0.00000000	    -30.96365955	      1.30438966	      0.22621274
      4.22500000	     13.28592354	     -0.14237360	      5.57561979	     -0.45087867	      0.92023314	     -0.25181760	    -28.32322685	      1.61048935	     -4.73364955	    -25.65485788	     18.15078167	     12.46199029	      0.00000000	      7.17486029	      1.74087432	      9.85655822	    -10.44312849	      9.62797885	     -3.46976010	      0.00000000	    -30.77262703	      0.74901059	      0.03257888
      4.23000000	     13.15385480	      0.38946424	      5.56781800	     -0.44397548	      0.92034464	     -0.25293946	    -27.93811914	      0.92113252	     -5.17309061	    -27.06238425	     17.35570851	     12.86113659	      0.00000000	      7.08533852	      2.39603441	      9.73964759	    -11.03141578	      9.46351903	     -3.54539929	      0.00000000	    -30.57994956	      0.20999758	     -0.14802472
